HIERARCHY
ROOT root
{
	OFFSET	0	13.1	24.9
	CHANNELS 6  Xposition Yposition Zposition Xrotation Yrotation Zrotation
	JOINT spine_1
	{
		OFFSET	0	9.99999	0
		CHANNELS 3  Xrotation Yrotation Zrotation
		JOINT spine_2
		{
			OFFSET	0	112	-10
			CHANNELS 3  Xrotation Yrotation Zrotation
			JOINT spine_3
			{
				OFFSET	0	206.5	19.3
				CHANNELS 3  Xrotation Yrotation Zrotation
				JOINT spine_4
				{
					OFFSET	0	110.4	14.6
					CHANNELS 3  Xrotation Yrotation Zrotation
					JOINT neck_1
					{
						OFFSET	0	71.8	-50.3
						CHANNELS 3  Xrotation Yrotation Zrotation
						JOINT neck_2
						{
							OFFSET	0	86.2	-25.8
							CHANNELS 3  Xrotation Yrotation Zrotation
							JOINT head_ee
							{
								OFFSET	0	179.8	-8.7
								CHANNELS 3  Xrotation Yrotation Zrotation
								End Site
								{
									OFFSET	1	0	0
								}
							}
						}
					}
					JOINT left_clavicle
					{
						OFFSET	-43.2	22.4	-70.8
						CHANNELS 3  Xrotation Yrotation Zrotation
						JOINT left_shoulder
						{
							OFFSET	-93.9	-5.79999	48.7
							CHANNELS 3  Xrotation Yrotation Zrotation
							JOINT left_elbow
							{
								OFFSET	-291.4	-30.8	15.2
								CHANNELS 3  Xrotation Yrotation Zrotation
								JOINT left_lowarm_twist
								{
									OFFSET	-110.7	-3.89999	13.6
									CHANNELS 3  Xrotation Yrotation Zrotation
									JOINT left_hand
									{
										OFFSET	-110.7	-3.89999	13.6
										CHANNELS 3  Xrotation Yrotation Zrotation
										JOINT left_ee
										{
											OFFSET	-80.8	-5.10001	12.1
											CHANNELS 3  Xrotation Yrotation Zrotation
											End Site
											{
												OFFSET	1	0	0
											}
										}
									}
								}
							}
						}
					}
					JOINT right_clavicle
					{
						OFFSET	43.2	22.4	-70.8
						CHANNELS 3  Xrotation Yrotation Zrotation
						JOINT right_shoulder
						{
							OFFSET	93.9	-5.79999	48.7
							CHANNELS 3  Xrotation Yrotation Zrotation
							JOINT right_elbow
							{
								OFFSET	291.4	-30.8	15.2
								CHANNELS 3  Xrotation Yrotation Zrotation
								JOINT right_lowarm_twist
								{
									OFFSET	110.7	-3.89999	13.6
									CHANNELS 3  Xrotation Yrotation Zrotation
									JOINT right_hand
									{
										OFFSET	110.7	-3.89999	13.6
										CHANNELS 3  Xrotation Yrotation Zrotation
										JOINT right_ee
										{
											OFFSET	80.8	-5.10001	12.1
											CHANNELS 3  Xrotation Yrotation Zrotation
											End Site
											{
												OFFSET	1	0	0
											}
										}
									}
								}
							}
						}
					}
				}
			}
		}
	}
	JOINT left_hip
	{
		OFFSET	-82.8	-127.5	0.300001
		CHANNELS 3  Xrotation Yrotation Zrotation
		JOINT left_knee
		{
			OFFSET	-28.2	-396.7	2.2
			CHANNELS 3  Xrotation Yrotation Zrotation
			JOINT left_ankle
			{
				OFFSET	-11.7	-411.3	35.4
				CHANNELS 3  Xrotation Yrotation Zrotation
				JOINT left_toes
				{
					OFFSET	0	-60	-88.6
					CHANNELS 3  Xrotation Yrotation Zrotation
					JOINT left_foot_ee
					{
						OFFSET	-22.5	-16.5	-42.2
						CHANNELS 3  Xrotation Yrotation Zrotation
						End Site
						{
							OFFSET	1	0	0
						}
					}
				}
			}
		}
	}
	JOINT right_hip
	{
		OFFSET	82.8	-127.5	0.300001
		CHANNELS 3  Xrotation Yrotation Zrotation
		JOINT right_knee
		{
			OFFSET	28.2	-396.7	2.2
			CHANNELS 3  Xrotation Yrotation Zrotation
			JOINT right_ankle
			{
				OFFSET	11.7	-411.3	35.4
				CHANNELS 3  Xrotation Yrotation Zrotation
				JOINT right_toes
				{
					OFFSET	0	-60	-88.6
					CHANNELS 3  Xrotation Yrotation Zrotation
					JOINT right_foot_ee
					{
						OFFSET	22.5	-16.5	-42.2
						CHANNELS 3  Xrotation Yrotation Zrotation
						End Site
						{
							OFFSET	1	0	0
						}
					}
				}
			}
		}
	}
}
MOTION
Frames: 6
Frame Time: 0.02
2984.13818166 696.785 -1860.10777212 6.75131432679 20.3473409222 -11.85722081 -2.9371 0.745643 4.48046 -2.92605 0.459327 4.51872 -2.87499 -0.727455 4.48344 -2.90303 -0.0110099 4.54194 7.82067 4.12618 0.130515 7.88464 6.78549 0.250161 -0.0 0.0 -0.0 4.35928 -12.1148 7.70135 18.8539 13.2659 59.0643 1.361 -33.986 0.415935 47.4919 -0.795162 -5.84326 -1.90091 27.4675 0.3467 -0.0 0.0 -0.0 12.3985 25.6449 -24.3329 -4.83189 -27.4565 -66.9358 0.80594 21.7637 -0.154937 50.3374 0.993068 6.14908 -0.0929065 0.937152 1.01732 0.0 0.0 0.0 8.30329 -21.2617 15.2127 -11.2334 0.297101 1.6956 12.014 26.5487 -1.79078 -30.8129 0.0 0.0 -0.0 0.0 -0.0 22.5435 3.06605 21.7435 -67.0463 3.00693 -9.25356 14.301 6.39363 2.0616 20.5615 -0.0 -0.0 0.0 0.0 0.0 
2973.10316661 696.643 -1871.36489889 6.51702499123 18.4319563812 -11.6446115444 -2.88006 0.815572 4.29614 -2.86996 0.540808 4.33922 -2.81515 -0.597354 4.33181 -2.84132 0.0935937 4.37173 8.13032 4.79725 0.898466 8.19736 7.19241 1.16704 -0.0 0.0 -0.0 4.04657 -12.7266 6.99716 20.4624 14.5809 58.6621 1.45879 -35.8513 0.471922 48.5297 -0.865576 -5.95592 -1.98185 26.8794 -0.378996 -0.0 0.0 -0.0 12.0671 24.7231 -23.6734 -6.85493 -26.5073 -67.4444 0.785206 21.2544 -0.147335 49.9344 0.964115 6.10636 0.0214309 2.12322 0.753351 0.0 0.0 0.0 7.09454 -18.8997 15.1382 -11.7944 0.303165 1.78146 12.6621 26.6931 -1.88496 -29.864 0.0 0.0 -0.0 0.0 -0.0 25.7523 2.93787 20.1494 -66.5194 2.94354 -9.20257 13.9251 8.67546 2.03237 19.8776 -0.0 -0.0 0.0 0.0 0.0 
2953.34392716 697.836 -1878.39724578 6.92290652161 18.6910404847 -11.5125875945 -3.03576 0.695622 4.01019 -3.02692 0.439248 4.04625 -2.98368 -0.631797 4.02073 -3.00623 0.0105842 4.06997 7.93708 5.68479 1.25857 8.02578 8.36821 1.61714 -0.0 0.0 -0.0 3.74961 -13.7793 6.28646 20.9473 15.0324 58.3145 1.5256 -37.0773 0.51163 50.09 -0.975259 -6.12288 -2.05064 26.7594 -0.815878 -0.0 0.0 -0.0 11.394 24.0308 -22.2081 -7.66601 -27.0003 -67.8463 0.748769 20.3507 -0.134394 49.9231 0.963308 6.10516 0.121603 2.77022 0.354366 0.0 0.0 0.0 5.44703 -18.2432 14.9783 -12.4221 0.308954 1.87759 12.8702 27.4228 -1.92318 -29.0979 0.0 0.0 -0.0 0.0 -0.0 26.9872 1.98907 18.8181 -65.4509 2.81644 -9.09741 12.2949 9.0021 1.80979 19.8909 -0.0 -0.0 0.0 0.0 0.0 
2931.97761621 697.734 -1889.91029315 6.53677624247 19.6281424019 -11.4050112686 -2.81329 0.601512 4.00166 -2.80445 0.345869 4.03175 -2.76877 -0.703404 3.98503 -2.79092 -0.0657519 4.046 7.34834 5.72057 1.06081 7.44209 8.66313 1.40232 -0.0 0.0 -0.0 3.11118 -12.7014 5.03206 20.742 14.6903 58.3405 1.81827 -42.0059 0.698125 51.8849 -1.10703 -6.31121 -2.25609 28.599 -1.02623 -0.0 0.0 -0.0 11.1436 20.5989 -21.9362 -9.67835 -25.649 -67.6135 0.7207 19.6473 -0.124794 47.7358 0.811525 5.86985 0.282512 5.9219 0.605141 0.0 0.0 0.0 3.82464 -16.803 15.119 -12.5904 0.310328 1.90339 16.0439 26.836 -2.36231 -27.6966 0.0 0.0 -0.0 0.0 -0.0 28.884 1.12755 18.3294 -65.2757 2.79578 -9.07993 11.9456 9.83957 1.76882 20.1537 -0.0 -0.0 0.0 0.0 0.0 
2900.52408257 692.676 -1916.41333306 7.88643062199 21.9775580309 -12.4907780664 -2.5699 0.62235 3.99993 -2.56107 0.366775 4.03136 -2.52444 -0.666004 3.99291 -2.54669 -0.0275784 4.04789 4.90699 5.54491 0.111592 5.00995 9.42036 0.402438 -0.0 0.0 -0.0 3.27959 -13.5249 5.31563 19.8809 16.1835 56.7235 3.10136 -56.9276 1.68165 53.011 -1.1927 -6.42724 -2.03004 26.1256 -1.01071 -0.0 0.0 -0.0 9.94137 14.0387 -19.6018 -16.8005 -18.9227 -69.1548 0.854809 22.9499 -0.173527 47.8052 0.816206 5.87741 0.18447 9.05914 2.60267 0.0 0.0 0.0 -0.96317 -16.1372 15.4205 -12.1505 0.306579 1.83599 19.6095 23.4487 -2.79401 -26.9049 0.0 0.0 -0.0 0.0 -0.0 31.9756 5.94067 12.4322 -61.067 2.3163 -8.64194 5.5676 6.83318 0.830974 18.2271 -0.0 -0.0 0.0 0.0 0.0 
2881.03666821 686.579 -1927.99303401 7.5928995394 23.1713463742 -12.5294988723 -2.21635 0.586208 3.90389 -2.20793 0.336802 3.93322 -2.17536 -0.646409 3.89439 -2.19652 -0.0237496 3.94752 4.88212 5.66642 -1.16207 5.03541 10.7411 -1.04912 -0.0 0.0 -0.0 3.15016 -15.9669 4.82549 17.984 16.3587 55.8477 3.50985 -60.0798 2.0301 53.6753 -1.24431 -6.49491 -1.4824 24.3346 1.2217 -0.0 0.0 -0.0 9.1035 11.8634 -17.8355 -18.1428 -19.0502 -69.6876 0.83992 22.5906 -0.167764 46.9099 0.756578 5.77954 0.189678 10.2842 3.0906 0.0 0.0 0.0 -2.48033 -15.7687 15.8325 -11.5556 0.300687 1.74491 23.3409 22.0484 -3.24981 -25.0964 0.0 0.0 -0.0 0.0 -0.0 31.3146 9.41196 11.3336 -57.8444 1.97178 -8.2837 4.63682 6.76686 0.693887 18.2158 -0.0 -0.0 0.0 0.0 0.0 
